{"title":"Imagine Dragons - Warriors (2014.Alternative Rock)","uid":11130210,"size":82636462,"categoryP":"video","categoryS":"music_videos","magnet":"?xt=urn:btih:ea752e1d454e9c225733da9dc3fa44d6b443523f&amp;dn=Imagine+Dragons+-+Warriors+%282014.Alternative+Rock%29&amp;tr=udp%3A%2F%2Ftracker.openbittorrent.com%3A80&amp;tr=udp%3A%2F%2Fopen.demonii.com%3A1337&amp;tr=udp%3A%2F%2Ftracker.coppersurfer.tk%3A6969&amp;tr=udp%3A%2F%2Fexodus.desync.com%3A6969","seeders":2,"leechers":0,"uploader":"MeRaDil","files":-1,"time":1412031846,"description":"IMAGINE DRAGONS - WARRIORS\n\n\n\nMPEG4 PROMO MUSIC VID\n\n &lt;a href=&quot;\nhttp://gifyu.com/images/ImagineDragons.png&quot; rel=&quot;nofollow&quot; target=&quot;_NEW&quot;&gt;\nhttp://gifyu.com/images/ImagineDragons.png&lt;/a&gt;\n\nLeague of Legends * Riot Games\n &lt;a href=&quot;\nhttps://thepiratebay.se/user/MeRaDil&quot; rel=&quot;nofollow&quot; target=&quot;_NEW&quot;&gt;\nhttps://thepiratebay.se/user/MeRaDil&lt;/a&gt;\n\n\nGeneral\nComplete name                            : Imagine Dragons - Warriors\nFormat                                   : MPEG-4\nFormat profile                           : Base Media\nCodec ID                                 : isom\nFile size                                : 65.5 MiB\nDuration                                 : 2mn 50s\nOverall bit rate                         : 3 227 Kbps\nMovie name                               : Warriors\nMovie name/More                          : Imagine Dragons\nPerformer                                : Imagine Dragons\nGenre                                    : Alternative Rock\nContentType                              : Promo Music Video\nRecorded date                            : 2014\nCopyright                                : Imagine Dragons &amp; Riot Games\nCover                                    : Yes\nComment                                  : League of Legends 2014 WorldChampionship\nRating                                   : ***\nMake                                     : MeRaDil\noday                                     : 17-09-2014 USA\nartist url                               : https://imaginedragonsmusic.com\nlabl                                     : Interscope\nrelease                                  : USA - september 17 - 2014\nPart_ID                                  : Warriors\n\nVideo\nID                                       : 1\nFormat                                   : AVC\nFormat/Info                              : Advanced Video Codec\nFormat profile                           : &lt;a class=&quot;__cf_email__&quot; href=&quot;/cdn-cgi/l/email-protection&quot; data-cfemail=&quot;baf2d3ddd2faf68e948a&quot;&gt;[email&amp;#160;protected]&lt;/a&gt;&lt;script data-cfhash='f9e31' type=&quot;text/javascript&quot;&gt;\n/* &lt;![CDATA[ */!function(){try{var t=&quot;currentScript&quot;in document?document.currentScript:function(){for(var t=document.getElementsByTagName(&quot;script&quot;),e=t.length;e--;)if(t[e].getAttribute(&quot;data-cfhash&quot;))return t[e]}();if(t&amp;&amp;t.previousSibling){var e,r,n,i,c=t.previousSibling,a=c.getAttribute(&quot;data-cfemail&quot;);if(a){for(e=&quot;&quot;,r=parseInt(a.substr(0,2),16),n=2;a.length-n;n+=2)i=parseInt(a.substr(n,2),16)^r,e+=String.fromCharCode(i);e=document.createTextNode(e),c.parentNode.replaceChild(e,c)}t.parentNode.removeChild(t);}}catch(u){}}()/* ]]&gt; */&lt;/script&gt;\nFormat settings, CABAC                   : Yes\nFormat settings, ReFrames                : 2 frames\nCodec ID                                 : avc1\nCodec ID/Info                            : Advanced Video Coding\nDuration                                 : 2mn 50s\nBit rate                                 : 2 965 Kbps\nWidth                                    : 1 920 pixels\nHeight                                   : 1 080 pixels\nDisplay aspect ratio                     : 16:9\nFrame rate mode                          : Constant\nFrame rate                               : 24.000 fps\nColor space                              : YUV\nChroma subsampling                       : 4:2:0\nBit depth                                : 8 bits\nScan type                                : Progressive\nBits/(Pixel*Frame)                       : 0.060\nStream size                              : 60.1 MiB (92%)\n\nAudio\nID                                       : 2\nFormat                                   : AAC\nFormat/Info                              : Advanced Audio Codec\nFormat profile                           : LC\nCodec ID                                 : 40\nDuration                                 : 2mn 50s\nBit rate mode                            : Constant\nBit rate                                 : 256 Kbps\nChannel(s)                               : 2 channels\nChannel positions                        : Front: L R\nSampling rate                            : 44.1 KHz\nCompression mode                         : Lossy\nStream size                              : 5.20 MiB (8%)\n\nmp3 -&gt; 320Kbps\n","torrent":{"xt":"urn:btih:ea752e1d454e9c225733da9dc3fa44d6b443523f","amp;dn":"Imagine+Dragons+-+Warriors+%282014.Alternative+Rock%29","amp;tr":["udp%3A%2F%2Ftracker.openbittorrent.com%3A80","udp%3A%2F%2Fopen.demonii.com%3A1337","udp%3A%2F%2Ftracker.coppersurfer.tk%3A6969","udp%3A%2F%2Fexodus.desync.com%3A6969"],"infoHash":"ea752e1d454e9c225733da9dc3fa44d6b443523f","infoHashBuffer":{"type":"Buffer","data":[234,117,46,29,69,78,156,34,87,51,218,157,195,250,68,214,180,67,82,63]},"announce":[],"urlList":[]}}